<?xml version="1.0" encoding="UTF-8" standalone="no"?>
<svg
   version="1.1"
   width="1968.0419"
   height="566.78363"
   id="svg6"
   viewBox="0 0 1968.0419 566.78363"
   sodipodi:docname="b2022b8f817dd573f6411a9d0df6b510.cdr"
   xmlns:inkscape="http://www.inkscape.org/namespaces/inkscape"
   xmlns:sodipodi="http://sodipodi.sourceforge.net/DTD/sodipodi-0.dtd"
   xmlns="http://www.w3.org/2000/svg"
   xmlns:svg="http://www.w3.org/2000/svg">
  <defs
     id="defs10" />
  <sodipodi:namedview
     id="namedview8"
     pagecolor="#ffffff"
     bordercolor="#666666"
     borderopacity="1.0"
     inkscape:pageshadow="2"
     inkscape:pageopacity="0.0"
     inkscape:pagecheckerboard="0" />
  <path
     d="m 1535.4235,566.7835 c 5.7148,0 9.3356,-2.2855 10.8576,-6.8563 l 70.2955,-265.1743 c 0,-0.761 0,-1.333 0,-1.7135 0,-3.8098 -2.2855,-5.7148 -6.8587,-5.7148 h -141.1581 c -3.4294,0 -5.1428,0.9525 -5.1428,2.8574 0,1.1415 3.2379,4.7623 9.7136,10.8576 6.4782,6.0953 9.7161,11.4295 9.7161,16.0004 0,1.1439 0,2.0988 0,2.8598 l -64.0064,240.0274 c 0,0.3805 0,0.9524 0,1.7134 0,3.4294 2.4769,5.1429 7.4283,5.1429 z M 1185.0997,541.639 c -4.9514,0 -7.4307,-1.905 -7.4307,-5.7148 0,-0.3805 7.8112,-29.9092 23.431,-88.5813 1.1464,-4.9537 4.7647,-7.4306 10.86,-7.4306 h 45.7182 c 4.5732,0 6.8586,1.9049 6.8586,5.7147 0,0.3805 -7.6197,29.9068 -22.859,88.5813 -1.5244,4.9538 -5.1428,7.4307 -10.86,7.4307 z m 60.577,-228.5979 h 45.7205 c 4.9514,0 7.4306,1.7159 7.4306,5.1428 0,0.7634 -7.9068,30.4811 -23.6248,89.1532 -1.5221,4.9538 -5.1428,7.4283 -10.7619,7.4283 h -45.7205 c -4.9514,0 -7.4283,-1.9025 -7.4283,-5.7148 0,-0.3805 7.8112,-30.0982 23.5268,-89.1508 1.1415,-4.5733 4.7647,-6.8587 10.8576,-6.8587 z m 142.302,141.73 c 0,-7.6196 -6.0953,-16.7614 -18.2882,-27.4323 21.7175,-12.9515 34.1019,-25.7164 37.1484,-38.2899 l 13.7173,-50.8609 c 0.761,-3.4318 1.1415,-6.8587 1.1415,-10.288 0,-11.8101 -4.8556,-21.5261 -14.5741,-29.1482 -9.7136,-7.6173 -22.0023,-11.4272 -36.8612,-11.4272 H 1093.661 c -3.4294,0 -5.1428,0.9525 -5.1428,2.8574 0,1.1415 3.2379,4.7623 9.7136,10.8576 6.4758,6.0953 9.7161,11.4295 9.7161,16.0004 0,1.1439 0,2.0988 0,2.8598 l -64.0087,240.0274 c 0,0.3805 0,0.9524 0,1.7134 0,3.4294 2.4792,5.1429 7.4306,5.1429 h 244.6007 c 17.9053,0 34.3843,-4.9514 49.4322,-14.8589 15.0479,-9.9051 24.2878,-21.9066 27.7195,-36.0045 l 13.715,-50.8609 c 0.761,-3.4294 1.1415,-6.8587 1.1415,-10.2881 z m -543.96792,10.2881 c -4.9513,0 -7.4282,-1.7159 -7.4282,-5.1428 0.2848,-0.7635 0.4762,-1.333 0.4762,-1.7159 l 36.5765,-138.3007 c 1.1415,-4.5733 4.7623,-6.8587 10.8599,-6.8587 h 45.7182 c 4.9513,0 7.4282,1.7159 7.4282,5.1428 0,0.7634 -0.1914,1.3354 -0.5719,1.7159 l -36.5741,138.3007 c -1.1439,4.5732 -4.7623,6.8587 -10.8576,6.8587 z M 1060.5139,327.9 c 0,-11.8101 -4.858,-21.5261 -14.5741,-29.1482 -9.7161,-7.6173 -22.0023,-11.4272 -36.8612,-11.4272 H 732.47718 c -3.4294,0 -5.1429,0.9525 -5.1429,2.8574 0,1.1415 3.2355,4.7623 9.7137,10.8576 6.4782,6.0953 9.7137,11.4295 9.7137,16.0004 0,1.1439 0,2.0988 0,2.8598 l -64.004,240.0274 c 0,0.3805 0,0.9524 0,1.7134 0,3.4294 2.4745,5.1429 7.4283,5.1429 h 109.0592 c 5.7171,0 9.3355,-2.2855 10.8599,-6.8563 l 16.0004,-62.2953 c 1.5244,-4.5685 4.9538,-6.8563 10.288,-6.8563 4.9514,0 8.4765,2.0964 10.3814,6.2867 l 22.2895,63.4368 c 1.522,4.1904 5.3319,6.2844 11.4271,6.2844 h 109.1574 c 4.5708,0 6.8563,-1.5245 6.8563,-4.5709 0,-0.761 -5.1429,-12.6692 -15.4285,-35.7197 -10.288,-23.0481 -15.6223,-35.5282 -16.0028,-37.4331 15.2394,-2.666 29.5263,-8.6655 42.86322,-18.0011 13.3344,-9.3331 21.5261,-19.7169 24.5725,-31.1464 L 1059.37,338.188 c 0.761,-3.4318 1.1439,-6.8587 1.1439,-10.288 z M 612.46458,566.7835 c 5.7124,0 9.3332,-2.2855 10.8576,-6.8563 l 70.2931,-265.1743 c 0,-0.5696 0,-1.1439 0,-1.7135 0,-3.8098 -2.2854,-5.7148 -6.8587,-5.7148 h -141.1581 c -3.4293,0 -5.1428,0.9525 -5.1428,2.8574 0,1.1415 3.2379,4.7623 9.7137,10.8576 6.4781,6.0953 9.716,11.4295 9.716,16.0004 0,1.1439 0,2.0988 0,2.8598 l -64.0063,240.0274 c 0,0.3805 0,0.9524 0,1.7134 0,3.4294 2.4769,5.1429 7.4282,5.1429 z M 1942.9573,334.84 c -1.1655,1.8499 -4.8413,1.7542 -6.0068,-0.053 l -11.0322,-21.7798 c -0.2561,0.021 -0.5002,0.034 -0.7371,0.034 H 1784.595 c -6.0952,0 -9.7136,2.2854 -10.8599,6.8587 -11.0467,41.9107 -16.5724,63.0539 -16.5724,63.4344 0,3.8098 2.2878,5.7147 6.8587,5.7147 h 118.299 c 14.8589,0 27.1476,3.7165 36.8612,11.1448 9.7137,7.4306 14.5741,17.051 14.5741,28.861 0,3.8098 -0.5719,7.4306 -1.7158,10.8576 l -20.0017,76.0078 c -3.8099,14.0979 -13.1454,26.0994 -28.0043,36.0045 -14.8589,9.9075 -31.2398,14.8589 -49.1475,14.8589 h -245.1726 c -2.6659,0 -3.9989,-0.572 -3.9989,-1.7135 0,-0.069 0.5361,-0.481 1.4861,-1.1415 l 24.8382,-45.5124 c 1.1679,-1.8474 3.2307,-1.4406 4.3962,0.3662 l 11.597,22.8902 h -0.01 c 0.1963,-0.022 0.3829,-0.034 0.5481,-0.034 0.4283,0 0.8567,0 1.2827,0 h 139.3084 c 6.0929,0 9.7137,-2.4769 10.8576,-7.4307 11.049,-41.9107 16.5723,-63.0539 16.5723,-63.4344 0,-3.8098 -2.2854,-5.7147 -6.8563,-5.7147 h -118.299 c -14.8613,0 -27.1475,-3.7165 -36.8612,-11.1448 -9.7185,-7.4306 -14.5741,-17.051 -14.5741,-28.861 0,-3.4269 0.5696,-6.8563 1.7135,-10.288 l 20.0017,-76.5774 c 3.8098,-13.7174 13.1454,-25.6231 28.0042,-35.7197 14.8589,-10.0966 31.2422,-15.1437 49.1475,-15.1437 h 245.1702 c 2.666,0 3.9989,0.572 3.9989,1.7135 0,0.9285 -0.627,1.8523 -1.8786,2.7808 z"
     style="fill:#e30016;fill-rule:evenodd"
     id="path2" />
  <path
     d="m 326.04728,416.4061 c 0.007,0.012 -0.0121,-0.015 -0.0413,-0.056 l 0.034,0.061 z m -0.0413,-0.056 c -0.005,0 -0.01,-0.012 -0.0121,-0.017 z m -0.0121,-0.017 c -0.005,-0.01 -0.01,-0.012 -0.0146,-0.017 z m -7.4065,5.4748 c 0,-0.01 -0.007,-0.01 -0.01,-0.015 m 0.0145,0.02 c -0.002,0 -0.002,0 -0.005,0 z m 76.0868,-79.6954 c 44.0193,8.0253 49.681,80.4962 30.0799,110.5737 -5.7223,8.7849 -13.2672,16.1211 -22.0012,21.1688 -35.181,21.5692 -71.6991,1.3468 -89.8611,-31.9704 0,0 0,0 -0.005,0 -0.002,-0.01 -0.005,-0.01 -0.007,-0.012 -0.1868,-0.2524 -0.114,-0.1674 -0.1674,-0.2524 l -0.0218,-0.066 c -18.9556,-50.0717 45.2302,-108.2416 81.9838,-99.4372 z M 89.433681,159.9926 c 0.0874,20.584 3.1281,40.1972 10.854999,60.0094 l 4.0357,10.3454 -8.898999,-4.1911 c -7.5424,-3.5552 -14.4636,-5.7151 -21.4988,-6.2053 -7.0449,-0.4926 -14.3107,0.6625 -22.5593,3.7348 l -5.6399,2.0992 0.3155,-7.1032 c 1.0411,-23.6077 6.2781,-45.6088 14.0656,-66.9766 7.7293,-21.1858 17.9485,-41.6896 29.0801,-62.5162 L 100.94388,67.1781 96.471381,93.0475 c -4.1887,24.2169 -7.1226,46.184 -7.0377,66.9451 z M 396.61768,319.796 c 16.0313,-11.3307 27.6216,-25.2943 36.8919,-41.7892 9.3795,-16.6792 16.4632,-36.0716 23.3795,-57.9975 l 7.2318,-22.9137 1.0703,24.3406 c 1.0265,23.3796 1.3614,45.9486 -0.9295,67.5761 -2.3176,21.841 -7.2828,42.653 -16.8588,62.2444 l -2.7787,5.6932 -4.1838,-4.9045 c -6.3023,-7.3944 -12.527,-12.6508 -19.2467,-16.4244 -6.7683,-3.7955 -14.1603,-6.1834 -22.7462,-7.8118 l -10.3818,-1.9681 z M 231.37598,85.8716 c -1.6842,19.7952 -0.119,39.2264 6.4503,59.7448 l 3.5456,11.054 -9.4499,-5.9044 c -7.79,-4.8632 -15.0242,-8.2656 -22.5375,-10.0881 -7.4988,-1.8201 -15.3785,-2.0967 -24.4765,-0.7256 l -5.8582,0.8809 0.8906,-6.3339 c 3.1548,-22.4986 10.656,-42.636 20.846,-61.6668 10.11,-18.8925 22.819,-36.6298 36.5327,-54.5055 L 251.37498,0 l -6.7076,22.9355 c -6.5571,22.4186 -11.5903,42.9345 -13.2914,62.9361 z m 97.7651,93.3872 c 12.1994,-14.7402 20.4869,-30.8637 26.6291,-48.8122 6.2125,-18.1596 10.2604,-38.2339 13.9345,-60.633 l 3.6742,-22.4259 3.065,22.2123 c 3.0165,21.841 5.3777,43.0947 5.4894,64.1422 0.1116,21.2294 -2.0652,42.1652 -8.1613,63.1083 l -1.6259,5.5719 -3.6742,-3.3805 c -5.8752,-5.402 -11.4908,-8.8019 -17.4,-10.6948 -5.9335,-1.9026 -12.2722,-2.3006 -19.5404,-1.6939 l -9.1489,0.7693 z m -81.0252,32.8101 0.007,0.039 -0.007,0.015 c 0.8445,5.2612 1.3226,10.9374 1.4245,16.8297 0.1019,5.9286 -0.1675,12.0562 -0.8178,18.2008 -3.4242,32.264 -17.417,66.484 -43.7718,77.3705 l 0.002,0.01 c -0.1602,0.066 0.0194,-0.012 -0.4295,0.1651 -17.0991,6.8459 -32.8756,0.3979 -45.8395,-11.7554 -12.311,-11.5369 -22.0448,-28.3641 -27.721,-43.3713 -0.301,-0.7887 -0.4126,-1.0848 -0.4344,-1.1406 h 0.002 l -0.0121,-0.027 c -1.8201,-4.9676 -3.3126,-10.0299 -4.4435,-15.1116 -1.1284,-5.0792 -1.8977,-10.2191 -2.269,-15.3445 -1.9463,-26.7819 7.0449,-52.297 32.082,-66.1515 9.4377,-5.22 18.8973,-8.6588 27.9953,-10.258 12.0053,-2.1137 23.3019,-0.9998 33.0454,3.4436 9.894,4.5114 18.1499,12.3814 23.9038,23.7096 3.3368,6.5717 5.8218,14.3568 7.2755,23.3772 z m 112.6656,118.6257 c -1.2911,1.4197 -2.7447,2.8976 -4.3391,4.4216 -12.0927,11.5588 -28.5341,20.9941 -44.8736,24.3624 -16.9947,3.497 -33.9773,0.5533 -46.3757,-13.0002 -0.5751,-0.6237 -1.2085,-1.3736 -1.9074,-2.2375 l -0.005,0.01 -0.0728,-0.087 -0.007,-0.027 c -3.3222,-4.1328 -5.8291,-8.7242 -7.6298,-13.6458 -1.7739,-4.8535 -2.866,-10.0201 -3.3853,-15.3663 -2.5457,-26.3572 9.0761,-57.8083 21.1615,-77.7516 2.8514,-4.703 5.8995,-9.0785 9.098,-13.0293 8.996,-11.1147 19.3826,-19.225 30.291,-22.5521 11.3573,-3.463 23.1685,-1.8128 34.5209,6.8363 1.8371,1.4026 3.6353,2.9655 5.3826,4.6836 1.3275,1.3032 2.587,2.6113 3.7712,3.9096 14.1433,15.4586 22.853,34.4068 24.6391,53.741 1.7958,19.4118 -3.3829,39.1148 -17.0311,55.9639 -1.0581,1.308 -2.138,2.5651 -3.2373,3.7712 z m -132.2546,24.0567 c 72.2039,15.4804 96.4936,185.316 2.6112,211.1394 -11.3452,3.1208 -22.04,-1.8954 -32.0529,-15.7474 -2.3588,-3.264 -4.3827,-6.1931 -6.1834,-8.7898 -10.77,-15.5435 -12.9056,-18.6279 -33.2638,-12.4494 -9.678,2.9389 -20.3704,3.4266 -30.2401,0.6747 -9.3649,-2.6137 -18.0213,-8.1419 -24.4522,-17.2593 -12.631399,-17.895 -13.337599,-45.8151 -7.569099,-73.2838 l 0.0218,-0.087 c 29.657599,-81.3844 93.248899,-90.3805 131.128499,-84.197 z m -116.4999,-68.2022 0.01,0.019 0.0631,0.1311 c 2.2327,4.3949 4.2178,8.9887 5.8995,13.7137 1.6842,4.7249 3.0553,9.5566 4.0527,14.415 5.2322,25.5079 0.4247,51.9744 -22.430699,69.6 -6.6663,5.1448 -15.8032,6.6567 -25.4884,6.3776 -9.1902,-0.2645 -18.8609,-2.1113 -27.2455,-3.912 -1.4803,-0.3179 -2.7568,-0.6333 -3.81,-0.9343 -16.5458,-4.788 -28.255,-16.5457 -35.2804995,-31.485 -6.86050002,-14.5825 -9.1538,-32.1839 -7.03770002,-49.1083 0.27430002,-2.1938 0.57520002,-4.1789 0.91010002,-5.9383 l 0.0194,-0.1043 c 0.3276,-1.7255 0.762,-3.6451 1.3129,-5.7466 0.5363,-2.0361 1.126,-4.0285 1.7691,-5.9214 3.5043,-10.3211 9.3163995,-20.9212 17.9047995,-28.2768 4.4191,-3.7858 8.7631,-6.8702 13.0172,-9.2921 12.6775,-7.2051 24.6561,-8.6127 35.7756,-5.1254 11.0054,3.4485 20.9819,11.6777 29.800799,23.7946 3.8076,5.2345 7.3993,11.1874 10.7579,17.7931 z"
     style="fill:#e30016;fill-rule:evenodd"
     id="path4" />
</svg>
