<?xml version="1.0" encoding="UTF-8"?> <svg xmlns="http://www.w3.org/2000/svg" width="187" height="70" viewBox="0 0 187 70" fill="none"> <g clip-path="url(#clip0_21_19)"> <path fill-rule="evenodd" clip-rule="evenodd" d="M87.8824 19.3599H90.9298C92.4417 19.3599 93.6904 19.8128 94.6761 20.7144C95.6618 21.6161 96.1566 22.7839 96.1566 24.2098C96.1566 25.6358 95.6618 26.7838 94.6761 27.6934C93.6904 28.603 92.4417 29.0598 90.9298 29.0598H84.729V13.5448H94.8411V16.5596H87.8863V19.356L87.8824 19.3599ZM92.5045 25.6318C92.909 25.2982 93.1093 24.8215 93.1093 24.2098C93.1093 23.5981 92.909 23.1215 92.5045 22.7799C92.1 22.4383 91.562 22.2675 90.8826 22.2675H87.8785V26.1363H90.8826C91.5581 26.1363 92.1 25.9695 92.5045 25.6358V25.6318ZM101.682 29.0637H98.9801V13.5448H102.133V23.6617L109.976 13.5448H112.678V29.0598H109.567V18.919L101.682 29.0598V29.0637ZM119.067 17.8108H115.957C116.216 16.2816 116.852 15.1456 117.869 14.4028C118.886 13.66 120.041 13.2866 121.337 13.2866C122.778 13.2866 123.952 13.664 124.859 14.4226C125.766 15.1813 126.222 16.1783 126.222 17.4176C126.222 18.8436 125.711 19.9677 124.686 20.7819C126.069 21.5525 126.76 22.7998 126.76 24.5197C126.76 25.9893 126.237 27.1611 125.193 28.027C124.148 28.8929 122.868 29.3259 121.36 29.3259C119.852 29.3259 118.509 28.889 117.386 28.0151C116.263 27.1412 115.599 25.9258 115.399 24.3648H118.533C118.721 25.0043 119.059 25.4968 119.55 25.8384C120.041 26.18 120.638 26.3508 121.344 26.3508C122.106 26.3508 122.695 26.1601 123.104 25.7828C123.512 25.4054 123.72 24.901 123.72 24.2734C123.72 23.7054 123.532 23.2526 123.159 22.9189C122.786 22.5853 122.259 22.4184 121.58 22.4184H119.766V19.7532H121.407C121.985 19.7532 122.424 19.5903 122.735 19.2606C123.045 18.9349 123.198 18.498 123.198 17.9618C123.198 17.4255 123.033 16.9926 122.699 16.6708C122.369 16.3491 121.894 16.1902 121.274 16.1902C120.74 16.1902 120.284 16.3412 119.903 16.6391C119.522 16.937 119.243 17.3262 119.071 17.8069L119.067 17.8108ZM129.819 29.0637V13.5448H132.953V19.7293H139.605V13.5448H142.739V29.0598H139.605V22.7441H132.953V29.0598H129.819V29.0637ZM146.642 29.0637V13.5448H156.193V16.5596H149.776V19.7492H154.897V22.764H149.776V26.041H156.193V29.0558H146.642V29.0637ZM166.167 29.3259C163.862 29.3259 161.946 28.5553 160.422 27.0102C158.894 25.465 158.133 23.5664 158.133 21.3063C158.133 19.0461 158.894 17.1475 160.422 15.6023C161.95 14.0572 163.862 13.2866 166.167 13.2866C167.911 13.2866 169.478 13.799 170.864 14.8278C172.254 15.8566 173.165 17.1912 173.597 18.8396H170.204C169.902 18.0809 169.372 17.4772 168.618 17.0243C167.864 16.5715 167.043 16.3451 166.167 16.3451C164.726 16.3451 163.552 16.8178 162.645 17.7671C161.738 18.7125 161.282 19.8922 161.282 21.3063C161.282 22.7203 161.738 23.9 162.645 24.8454C163.552 25.7907 164.726 26.2674 166.167 26.2674C167.047 26.2674 167.864 26.041 168.618 25.5882C169.376 25.1353 169.902 24.5316 170.204 23.7729H173.597C173.165 25.4174 172.254 26.7559 170.864 27.7847C169.474 28.8135 167.907 29.3259 166.167 29.3259ZM91.1379 50.6798V43.2957H91.1143C88.334 43.2957 86.9439 44.5191 86.9439 46.9659C86.9439 48.1178 87.2777 49.0234 87.9492 49.6868C88.6207 50.3501 89.6731 50.6798 91.1143 50.6798H91.1379ZM94.2913 55.486H91.1379V53.5635H91.1143C88.8524 53.5635 87.0656 52.9915 85.7579 51.8476C84.4463 50.7036 83.7905 49.083 83.7905 46.9858C83.7905 44.8885 84.4463 43.3116 85.7579 42.1676C87.0695 41.0237 88.8524 40.4517 91.1143 40.4517H91.1379V38.6603H94.2913V40.4517H94.3148C96.5611 40.4517 98.3439 41.0237 99.6634 42.1676C100.983 43.3116 101.639 44.9163 101.639 46.9858C101.639 49.0552 100.979 50.7036 99.6634 51.8476C98.3439 52.9915 96.565 53.5635 94.3148 53.5635H94.2913V55.486ZM94.2913 50.6798H94.3148C95.7403 50.6798 96.7928 50.3501 97.4682 49.6868C98.1437 49.0234 98.4853 48.1178 98.4853 46.9659C98.4853 45.814 98.1476 44.9163 97.4682 44.2689C96.7928 43.6214 95.7403 43.2957 94.3148 43.2957H94.2913V50.6798ZM107.313 54.8306H104.611V39.3157H107.765V49.4326L115.607 39.3157H118.309V54.8306H115.199V44.6899L107.313 54.8306ZM122.216 54.8306V39.3157H125.35V45.5002H132.002V39.3157H135.136V54.8306H132.002V48.515H125.35V54.8306H122.216ZM137.355 54.8306L143.964 39.3157H146.752L153.385 54.8306H150.102L148.61 51.2915H142.063L140.595 54.8306H137.355ZM145.346 43.4903L143.23 48.515H147.443L145.346 43.4903ZM155.584 54.8306V39.3157H158.718V45.5002H165.37V39.3157H168.504V54.8306H165.37V48.515H158.718V54.8306H155.584ZM179.558 55.0928C177.253 55.0928 175.337 54.3222 173.813 52.7771C172.285 51.2319 171.524 49.3333 171.524 47.0731C171.524 44.813 172.285 42.9144 173.813 41.3692C175.341 39.8241 177.257 39.0535 179.558 39.0535C181.302 39.0535 182.869 39.5659 184.255 40.5947C185.645 41.6235 186.556 42.9581 186.988 44.6065H183.595C183.293 43.8478 182.763 43.2441 182.009 42.7912C181.251 42.3384 180.434 42.116 179.558 42.116C178.117 42.116 176.943 42.5887 176.036 43.538C175.129 44.4834 174.673 45.6631 174.673 47.0771C174.673 48.4912 175.129 49.6709 176.036 50.6162C176.943 51.5616 178.117 52.0382 179.558 52.0382C180.438 52.0382 181.255 51.8118 182.009 51.359C182.767 50.9062 183.293 50.3024 183.595 49.5438H186.988C186.556 51.1882 185.645 52.5268 184.255 53.5556C182.865 54.5844 181.298 55.0968 179.558 55.0968V55.0928Z" fill="#424244"></path> <path fill-rule="evenodd" clip-rule="evenodd" d="M83.7983 69.9166V65.0468H85.3181C85.7618 65.0468 86.1113 65.1699 86.3705 65.4122C86.6297 65.6545 86.7554 65.9485 86.7554 66.298C86.7554 66.7747 86.5708 67.1202 86.2056 67.3347C86.7829 67.5333 87.0735 67.9186 87.0735 68.5025C87.0735 68.9196 86.9242 69.2612 86.6219 69.5233C86.3195 69.7895 85.9228 69.9205 85.4241 69.9205H83.7983V69.9166ZM84.3128 69.4439H85.4791C85.8325 69.4439 86.0996 69.3605 86.2881 69.1976C86.4726 69.0348 86.5669 68.8123 86.5669 68.5383C86.5669 68.2642 86.4766 68.0457 86.292 67.8789C86.1074 67.7121 85.8404 67.6287 85.487 67.6287H84.3128V69.4479V69.4439ZM84.3128 67.1719H85.3495C85.6283 67.1719 85.8482 67.0964 86.0053 66.9415C86.1624 66.7905 86.2409 66.5919 86.2409 66.3496C86.2409 66.1193 86.1624 65.9246 86.0014 65.7618C85.8404 65.5989 85.6244 65.5195 85.3456 65.5195H84.3089V67.1719H84.3128ZM87.8706 69.9166L90.0148 65.0468H90.4271L92.5791 69.9166H92.0372L91.3657 68.3992H89.0684L88.4047 69.9166H87.8746H87.8706ZM90.2111 65.7777L89.2765 67.9107H91.1536L90.2111 65.7777ZM93.8043 69.9166V65.0468H94.3188V69.424H96.2312V65.0468H96.7457V69.424H98.6581V65.0468H99.1726V69.9166H93.8004H93.8043ZM107.038 69.9166V65.5393H104.317V69.9166H103.822V65.0468H107.537V69.9166H107.034H107.038ZM108.766 69.9166L110.91 65.0468H111.323L113.471 69.9166H112.929L112.257 68.3992H109.956L109.292 69.9166H108.762H108.766ZM111.107 65.7777L110.172 67.9107H112.049L111.107 65.7777ZM117.319 65.4758C117.622 65.7618 117.771 66.1272 117.771 66.5681C117.771 67.009 117.622 67.3705 117.319 67.6565C117.017 67.9425 116.62 68.0854 116.129 68.0854H115.214V69.9166H114.7V65.0468H116.129C116.624 65.0468 117.021 65.1898 117.319 65.4798V65.4758ZM116.954 67.3069C117.15 67.1163 117.249 66.866 117.249 66.5681C117.249 66.2702 117.15 66.016 116.954 65.8214C116.758 65.6267 116.483 65.5314 116.129 65.5314H115.214V67.5969H116.129C116.483 67.5969 116.758 67.5016 116.954 67.3069ZM120.155 69.9126V65.5354H118.596V65.0428H122.224V65.5354H120.665V69.9126H120.155ZM123.5 69.9126V65.0428H124.015V67.1639H126.83V65.0428H127.345V69.9126H126.83V67.6565H124.015V69.9126H123.5ZM129.187 69.9126V65.0428H131.936V65.5354H129.705V67.16H131.531V67.6525H129.705V69.4161H131.936V69.9086H129.187V69.9126ZM129.803 64.4987C129.697 64.4987 129.611 64.4629 129.54 64.3914C129.469 64.3199 129.434 64.2365 129.434 64.1332C129.434 64.03 129.469 63.9465 129.54 63.875C129.611 63.8035 129.697 63.7678 129.803 63.7678C129.909 63.7678 129.988 63.8035 130.055 63.875C130.121 63.9465 130.157 64.03 130.157 64.1332C130.157 64.2365 130.121 64.3199 130.055 64.3914C129.988 64.4629 129.901 64.4987 129.803 64.4987ZM131.307 64.4987C131.205 64.4987 131.115 64.4629 131.048 64.3914C130.977 64.3199 130.942 64.2365 130.942 64.1332C130.942 64.03 130.977 63.9465 131.048 63.875C131.119 63.8035 131.205 63.7678 131.307 63.7678C131.409 63.7678 131.492 63.8035 131.559 63.875C131.625 63.9465 131.661 64.03 131.661 64.1332C131.661 64.2365 131.625 64.3199 131.559 64.3914C131.492 64.4629 131.405 64.4987 131.307 64.4987ZM136.063 65.4718C136.365 65.7578 136.514 66.1232 136.514 66.5641C136.514 67.005 136.365 67.3665 136.063 67.6525C135.76 67.9385 135.364 68.0815 134.873 68.0815H133.958V69.9126H133.444V65.0428H134.873C135.368 65.0428 135.76 65.1858 136.063 65.4758V65.4718ZM135.698 67.3029C135.894 67.1123 135.992 66.862 135.992 66.5641C135.992 66.2662 135.894 66.012 135.698 65.8174C135.501 65.6228 135.226 65.5274 134.873 65.5274H133.958V67.5929H134.873C135.226 67.5929 135.501 67.4976 135.698 67.3029ZM140.485 69.9086V65.0389H142.004C142.448 65.0389 142.798 65.162 143.057 65.4043C143.316 65.6466 143.442 65.9405 143.442 66.2901C143.442 66.7667 143.257 67.1123 142.892 67.3268C143.473 67.5254 143.76 67.9107 143.76 68.4946C143.76 68.9116 143.611 69.2532 143.308 69.5154C143.006 69.7815 142.609 69.9126 142.11 69.9126H140.481L140.485 69.9086ZM140.999 69.436H142.165C142.519 69.436 142.786 69.3525 142.974 69.1897C143.159 69.0268 143.253 68.8044 143.253 68.5303C143.253 68.2562 143.163 68.0378 142.978 67.871C142.794 67.7041 142.527 67.6207 142.173 67.6207H140.999V69.4399V69.436ZM140.999 67.1639H142.036C142.315 67.1639 142.535 67.0885 142.696 66.9335C142.853 66.7826 142.931 66.584 142.931 66.3417C142.931 66.1113 142.853 65.9167 142.692 65.7538C142.531 65.591 142.315 65.5115 142.036 65.5115H140.999V67.1639ZM150.671 65.4678C150.974 65.7538 151.123 66.1193 151.123 66.5602C151.123 67.0011 150.974 67.3625 150.671 67.6485C150.369 67.9345 149.972 68.0775 149.481 68.0775H148.566V69.9086H148.052V65.0389H149.481C149.976 65.0389 150.373 65.1819 150.671 65.4718V65.4678ZM150.306 67.299C150.502 67.1083 150.601 66.8581 150.601 66.5602C150.601 66.2623 150.502 66.008 150.306 65.8134C150.11 65.6188 149.835 65.5235 149.481 65.5235H148.566V67.5889H149.481C149.835 67.5889 150.11 67.4936 150.306 67.299ZM151.684 69.9047L153.829 65.0349H154.241L156.393 69.9047H155.851L155.179 68.3873H152.878L152.215 69.9047H151.684ZM154.025 65.7658L153.09 67.8988H154.967L154.025 65.7658ZM157.815 66.163H157.292C157.371 65.7499 157.551 65.444 157.842 65.2454C158.133 65.0468 158.462 64.9475 158.832 64.9475C159.256 64.9475 159.601 65.0706 159.864 65.3129C160.128 65.5592 160.261 65.873 160.261 66.2623C160.261 66.4807 160.21 66.6873 160.108 66.8819C160.006 67.0765 159.853 67.2314 159.644 67.3506C159.908 67.4459 160.104 67.6009 160.241 67.8153C160.379 68.0298 160.446 68.2761 160.446 68.5542C160.446 69.007 160.289 69.3565 159.974 69.6068C159.66 69.857 159.279 69.9801 158.832 69.9801C158.384 69.9801 158.015 69.8729 157.701 69.6544C157.383 69.436 157.194 69.1142 157.131 68.6892H157.654C157.712 68.9593 157.854 69.1619 158.074 69.293C158.294 69.424 158.549 69.4916 158.839 69.4916C159.169 69.4916 159.436 69.4042 159.637 69.2294C159.837 69.0546 159.939 68.8203 159.939 68.5343C159.939 68.2483 159.845 68.0378 159.66 67.867C159.472 67.6962 159.205 67.6088 158.863 67.6088H158.313V67.156H158.883C159.158 67.156 159.374 67.0726 159.527 66.9097C159.68 66.7469 159.758 66.5403 159.758 66.298C159.758 66.0359 159.676 65.8293 159.507 65.6704C159.338 65.5115 159.11 65.4321 158.816 65.4321C158.584 65.4321 158.376 65.4957 158.191 65.6228C158.007 65.7499 157.881 65.9286 157.818 66.163H157.815ZM161.997 69.9007V65.0309H163.517C163.96 65.0309 164.31 65.1541 164.569 65.3963C164.828 65.6386 164.954 65.9326 164.954 66.2821C164.954 66.7588 164.769 67.1043 164.404 67.3188C164.981 67.5174 165.272 67.9027 165.272 68.4866C165.272 68.9037 165.123 69.2453 164.82 69.5075C164.518 69.7736 164.121 69.9047 163.623 69.9047H161.997V69.9007ZM162.511 69.428H163.678C164.031 69.428 164.298 69.3446 164.486 69.1817C164.671 69.0189 164.765 68.7964 164.765 68.5224C164.765 68.2483 164.675 68.0298 164.49 67.863C164.306 67.6962 164.039 67.6128 163.685 67.6128H162.511V69.432V69.428ZM162.511 67.156H163.548C163.827 67.156 164.047 67.0805 164.208 66.9256C164.365 66.7747 164.443 66.5761 164.443 66.3338C164.443 66.1034 164.365 65.9087 164.204 65.7459C164.043 65.583 163.827 65.5036 163.548 65.5036H162.511V67.156ZM167.208 69.9007H166.752V65.0309H167.267V69.0189L170.338 65.0309H170.793V69.9007H170.279V65.9127L167.208 69.9007ZM173.636 69.9007V65.5235H172.077V65.0309H175.706V65.5235H174.147V69.9007H173.64H173.636ZM177.438 69.9007H176.982V65.0309H177.497V69.0189L180.568 65.0309H181.023V69.9007H180.509V65.9127L177.438 69.9007ZM183.32 69.9007H182.865V65.0309H183.379V69.0189L186.45 65.0309H186.906V69.9007H186.391V65.9127L183.32 69.9007Z" fill="#424244"></path> <path fill-rule="evenodd" clip-rule="evenodd" d="M49.0286 53.3848V32.1302L32.6884 20.3132L5.44675 40.0028V69.9126H0C0 58.9973 0.00785401 48.0781 0 37.1668L32.6884 13.5408L54.4793 29.2901V58.8941H21.8341V53.3848H49.0286ZM0 23.6259V30.3944L32.6884 6.7724L59.93 26.462V64.4033H16.3442V38.8986L10.8974 42.8349V69.9126H65.3728V23.6259L32.6884 0L0 23.6259Z" fill="#A91D06"></path> </g> <defs> <clipPath id="clip0_21_19"> <rect width="187" height="70" fill="white"></rect> </clipPath> </defs> </svg> 